# xmcd
#
# Track frame offsets:
#	150
#	13745
#	26192
#	40852
#	53475
#	67902
#	78377
#	91590
#	106410
#	119272
#	147155
#	158695
#	168890
#	180417
#	193027
#	207825
#	220137
#	232050
#	241780
#	255795
#
# Disc length: 3596
#
# Revision: 3
# Processed by: cddbd v1.5.1PL0 Copyright (c) Steve Scherf et al.
# Submitted via: ExactAudioCopy v0.90a11
# Normalized: r2:DSETVAR1
#
DISCID=f80e0a14
DTITLE=Various Artist - Chess 50th Anniversary Collection Disc 2
DYEAR=1900
DGENRE=
TTITLE0=John Lee Hooker - One Bourbon, One Scotch, One Beer
TTITLE1=Bo Diddley - Roadrunner
TTITLE2=Chuck Berry - Realin and Rockin
TTITLE3=Jimmy Rogers - That's All Right
TTITLE4=Buddy Guy - My Time After Awhile
TTITLE5=Clarence 'Frogman' Henry - Don't Know Why I Love You (But I Do)
TTITLE6=Fontella Bass - Rescue Me
TTITLE7=Ramsey Lewis Trio - The 'In' Crowd
TTITLE8=Sugar Pie Desanto - Soulful Dress
TTITLE9=The Dells - Stay In My Corner
TTITLE10=The Radiants - Voice Your Choice
TTITLE11=Elmore James - Talk To Me Baby
TTITLE12=Irma Thompson - Good To Me
TTITLE13=Jackie Brenton and His Delta Cats - Rocket 88
TTITLE14=Jackie Ross - Selfish One
TTITLE15=Little Walter and His Night Cats - Juke
TTITLE16=Little Milton - Grit's Ain't Groceries
TTITLE17=Willie Dixon - 29 Ways
TTITLE18=Sonny Boy Williamson - Help Me
TTITLE19=Muddy Waters - Rollin' Stone
EXTD=
EXTT0=
EXTT1=
EXTT2=
EXTT3=
EXTT4=
EXTT5=
EXTT6=
EXTT7=
EXTT8=
EXTT9=
EXTT10=
EXTT11=
EXTT12=
EXTT13=
EXTT14=
EXTT15=
EXTT16=
EXTT17=
EXTT18=
EXTT19=
PLAYORDER=
